<svg width="26" height="24" viewBox="0 0 26 24" fill="none" xmlns="http://www.w3.org/2000/svg">
<path d="M13.0164 23.2743C12.4623 23.2743 11.8486 23.0474 11.1656 22.448C10.4611 21.8248 9.74472 21.2134 9.03069 20.6021C7.03904 18.8994 4.98054 17.137 3.15367 15.1477C0.722626 12.5018 -0.16812 9.76984 0.436059 6.80148C1.04024 3.82357 2.81696 1.82715 5.57516 1.02715C8.23308 0.255806 10.7095 1.02715 12.7393 3.2576C12.8396 3.36745 12.9352 3.4773 13.0426 3.60148C16.7561 -0.329267 20.1376 0.489837 22.3202 1.87014C25.2289 3.70894 26.4946 7.74237 25.2647 11.2552C24.3286 13.9274 22.3752 15.8594 20.6176 17.4618C19.6838 18.3143 18.7071 19.1406 17.7638 19.9382C16.8587 20.7048 15.9202 21.4976 15.0343 22.3024C14.4874 22.7991 13.8164 23.2743 13.0164 23.2743ZM7.55725 2.53163C7.07964 2.53163 6.58531 2.60566 6.07666 2.75372C3.97278 3.36267 2.66651 4.84566 2.19845 7.15969C1.71128 9.5573 2.43725 11.7089 4.47904 13.9322C6.23427 15.8403 8.24979 17.5669 10.2008 19.2361C10.922 19.8546 11.6456 20.4707 12.3573 21.1012C12.9304 21.6074 13.0928 21.6433 13.8283 20.9746C14.7381 20.1483 15.6886 19.346 16.6056 18.5674C17.537 17.7794 18.4993 16.9651 19.4092 16.134C21.0784 14.6128 22.774 12.9364 23.5716 10.6606C24.534 7.91909 23.5835 4.79312 21.3626 3.39133C18.9841 1.88924 16.6892 2.36208 14.3489 4.83849C14.3179 4.87431 14.251 5.01999 14.1961 5.137C14.134 5.27073 14.0647 5.42118 13.9787 5.58596L13.3602 6.75133L12.0086 5.16805C11.765 4.87909 11.5907 4.67372 11.4092 4.47312C10.2319 3.17879 8.96143 2.5364 7.55725 2.5364V2.53163Z" fill="white"/>
</svg>
