<svg width="17" height="41" viewBox="0 0 17 41" fill="none" xmlns="http://www.w3.org/2000/svg">
<path d="M16.6868 16.3264C16.6868 14.0502 16.0442 12.211 14.7903 10.7803C13.2138 8.96976 11.2003 8.06689 8.68995 8.06689C3.81495 8.06689 0.313354 11.4538 0.313354 16.0924C0.313354 20.7309 3.75762 24.0008 8.54425 24.0008C10.7632 24.0008 12.5427 23.3583 14.7903 21.2277L14.7855 33.6815C14.7855 36.6672 12.3563 39.0964 9.37068 39.0964H8.30301C5.0116 39.0964 2.33405 36.4188 2.33405 33.1274V31.1879C2.34122 31.0446 2.36749 30.9777 2.49648 30.9777C3.04584 30.9825 3.81256 30.9777 4.35953 30.9777C4.43119 30.9777 4.50285 30.9706 4.62705 30.9634C3.3468 29.0621 2.04982 27.1943 0.788674 25.3312C0.674025 25.1616 0.406507 25.2405 0.406507 25.4483C0.406507 26.8145 0.41845 29.9053 0.413673 31.3647H0.430394V33.1298C0.430394 37.4698 3.96065 41 8.30062 41H9.36829C13.1398 41 16.2544 38.1314 16.6438 34.4602L16.6868 16.3241V16.3264ZM13.0084 20.3822C11.8404 21.6959 10.381 22.3384 8.60157 22.3384C4.92323 22.3384 2.32689 19.5653 2.32689 16.1807C2.32689 12.7962 4.89457 9.7317 8.6589 9.7317C12.1318 9.7317 14.7879 12.7962 14.7879 15.918C14.7879 17.6115 14.2051 19.0995 13.0084 20.3822Z" fill="white"/>
<path d="M5.89048 4.92854C6.98142 4.92854 7.8658 4.04416 7.8658 2.95322C7.8658 1.86229 6.98142 0.977905 5.89048 0.977905C4.79954 0.977905 3.91516 1.86229 3.91516 2.95322C3.91516 4.04416 4.79954 4.92854 5.89048 4.92854Z" fill="#FFBF00"/>
<path d="M11.1096 4.92854C12.2005 4.92854 13.0849 4.04416 13.0849 2.95322C13.0849 1.86229 12.2005 0.977905 11.1096 0.977905C10.0187 0.977905 9.13428 1.86229 9.13428 2.95322C9.13428 4.04416 10.0187 4.92854 11.1096 4.92854Z" fill="#FFBF00"/>
</svg>
