<svg width="22" height="25" viewBox="0 0 22 25" fill="none" xmlns="http://www.w3.org/2000/svg">
<path d="M17.963 8.87421C20.1577 8.87421 21.9439 7.08794 21.9439 4.89331C21.9439 3.83062 21.5308 2.83003 20.7786 2.07779C20.0263 1.32555 19.0257 0.912415 17.963 0.912415C15.7684 0.912415 13.9821 2.69868 13.9821 4.89331C13.9821 5.23958 14.0418 5.57152 14.1254 5.89152L8.79767 9.25391C8.70215 9.13928 8.62095 9.01749 8.51588 8.91003C7.62513 8.01928 6.43827 7.52734 5.17737 7.52734C2.57439 7.52734 0.456177 9.64555 0.456177 12.2485C0.456177 14.8515 2.57439 16.9673 5.17737 16.9673C6.34513 16.9673 7.39827 16.5255 8.22454 15.8235L11.4914 18.3548C11.3218 18.6366 11.1738 18.9351 11.0783 19.2647C10.455 21.3709 11.6633 23.5894 13.7672 24.2103C14.1421 24.3202 14.5218 24.3751 14.9016 24.3751C15.5559 24.3751 16.2054 24.2103 16.7977 23.8903C17.7314 23.3817 18.412 22.5411 18.7153 21.5214C19.0162 20.5017 18.9039 19.4247 18.3953 18.4909C17.889 17.5572 17.046 16.8766 16.0263 16.5733C14.8729 16.2318 13.6956 16.4539 12.7547 17.0581L9.34692 14.4169C9.68842 13.765 9.90095 13.0342 9.90095 12.2485C9.90095 11.759 9.80543 11.2885 9.66454 10.8348L14.9708 7.48435C15.7016 8.32734 16.7666 8.87421 17.9678 8.87421H17.963ZM5.17737 15.1715C3.56543 15.1715 2.25439 13.8605 2.25439 12.2485C2.25439 10.6366 3.56543 9.32555 5.17737 9.32555C5.95827 9.32555 6.6914 9.62883 7.24543 10.1829C7.79946 10.7369 8.10036 11.47 8.10036 12.2509C8.10036 13.8629 6.78931 15.1739 5.17737 15.1739V15.1715ZM14.8968 18.2067C15.1021 18.2067 15.3099 18.2354 15.5153 18.2975C16.0741 18.4623 16.5374 18.8372 16.8144 19.3506C17.0938 19.8641 17.1559 20.4539 16.9887 21.0127C16.8239 21.5715 16.449 22.0348 15.938 22.3118C15.4245 22.5912 14.8347 22.6533 14.2759 22.4861C13.7171 22.3214 13.2562 21.9464 12.9768 21.4354C12.6974 20.922 12.6353 20.3321 12.8001 19.7733C13.0818 18.8229 13.9535 18.2067 14.8968 18.2067ZM17.963 2.70824C18.5457 2.70824 19.095 2.9351 19.5081 3.34823C19.9213 3.76137 20.1481 4.30823 20.1481 4.89331C20.1481 6.09689 19.169 7.07838 17.963 7.07838C16.7571 7.07838 15.778 6.09928 15.778 4.89331C15.778 3.68734 16.7571 2.70824 17.963 2.70824Z" fill="white"/>
</svg>
